<svg xmlns="http://www.w3.org/2000/svg" width="150" height="45"><g fill="none"><path d="M138.055 0H10.58c-.38 0-.765.011-1.152.016a18.41 18.41 0 0 0-2.512.2 9.035 9.035 0 0 0-2.383.705A8.094 8.094 0 0 0 2.5 2.247 7.129 7.129 0 0 0 1.027 4.07a6.909 6.909 0 0 0-.783 2.142 13.161 13.161 0 0 0-.225 2.252C.007 8.809.006 9.155 0 9.5v26c.006.349.007.688.019 1.037a13.16 13.16 0 0 0 .225 2.252 6.894 6.894 0 0 0 .783 2.142 7.075 7.075 0 0 0 1.473 1.82 7.888 7.888 0 0 0 2.029 1.326 9.081 9.081 0 0 0 2.383.71 18.748 18.748 0 0 0 2.512.2c.387.008.768.012 1.152.012h128.831c.382 0 .774 0 1.156-.012a18.5 18.5 0 0 0 2.507-.2 9.223 9.223 0 0 0 2.392-.71 7.891 7.891 0 0 0 2.027-1.326 7.292 7.292 0 0 0 1.481-1.816 6.908 6.908 0 0 0 .776-2.142 13.679 13.679 0 0 0 .233-2.252v-1.037c.01-.409.01-.815.01-1.231V10.728c0-.412 0-.821-.01-1.228V8.464a13.68 13.68 0 0 0-.233-2.252 6.922 6.922 0 0 0-.776-2.141 7.742 7.742 0 0 0-3.508-3.15 9.176 9.176 0 0 0-2.392-.705 18.173 18.173 0 0 0-2.507-.2C140.187.011 139.8 0 139.414 0h-1.359z"/><path data-name="Shape" d="M10.586 44.019c-.382 0-.755 0-1.134-.012a17.677 17.677 0 0 1-2.343-.188 7.975 7.975 0 0 1-2.077-.616 6.8 6.8 0 0 1-1.751-1.144 6.065 6.065 0 0 1-1.279-1.57 5.987 5.987 0 0 1-.681-1.864 12.573 12.573 0 0 1-.208-2.106 88.712 88.712 0 0 1-.018-1.027V9.5s.011-.778.018-1.006a12.529 12.529 0 0 1 .207-2.106 6.022 6.022 0 0 1 .681-1.869 6.12 6.12 0 0 1 1.273-1.574 7 7 0 0 1 1.758-1.15 7.9 7.9 0 0 1 2.072-.612A17.535 17.535 0 0 1 9.455.998l1.131-.014h128.821l1.145.014a17.255 17.255 0 0 1 2.33.183 8.053 8.053 0 0 1 2.094.616 6.7 6.7 0 0 1 3.027 2.722 6.027 6.027 0 0 1 .671 1.855 13.169 13.169 0 0 1 .218 2.123v1c.01.422.01.823.01 1.228v23.548c0 .409 0 .808-.01 1.21v1.046a12.893 12.893 0 0 1-.214 2.085 6 6 0 0 1-.677 1.879 6.251 6.251 0 0 1-1.273 1.559 6.8 6.8 0 0 1-1.754 1.15 7.947 7.947 0 0 1-2.091.619 17.476 17.476 0 0 1-2.343.183c-.367.008-.752.012-1.125.012h-1.359z" stroke="#fff"/></g><path d="M32.665 22.376a5.794 5.794 0 0 1 2.746-4.857 5.9 5.9 0 0 0-4.65-2.524c-1.956-.206-3.853 1.176-4.85 1.176-1.016 0-2.551-1.155-4.2-1.121a6.19 6.19 0 0 0-5.211 3.19c-2.253 3.917-.573 9.674 1.586 12.841 1.08 1.55 2.342 3.282 3.994 3.221 1.616-.067 2.22-1.035 4.17-1.035 1.933 0 2.5 1.035 4.184 1 1.734-.028 2.827-1.557 3.869-3.123a12.846 12.846 0 0 0 1.769-3.618 5.6 5.6 0 0 1-3.407-5.15zm-3.182-9.467a5.716 5.716 0 0 0 1.3-4.084 5.768 5.768 0 0 0-3.739 1.944 5.438 5.438 0 0 0-1.333 3.932 4.768 4.768 0 0 0 3.772-1.792z" fill="#fff"/><g data-name="Group"><path data-name="Shape" d="M55.382 30.532h-5.3l-1.277 3.776h-2.247l5.024-13.97h2.333l5.025 13.97h-2.286zm-4.754-1.742h4.2l-2.069-6.129h-.058zm19.158.426c0 3.165-1.687 5.2-4.233 5.2a3.436 3.436 0 0 1-3.192-1.781h-.048v5.045h-2.082V24.123h2.015v1.694h.038a3.6 3.6 0 0 1 3.23-1.8c2.575-.001 4.272 2.043 4.272 5.199zm-2.14 0c0-2.062-1.061-3.418-2.681-3.418-1.591 0-2.661 1.384-2.661 3.418 0 2.052 1.07 3.427 2.661 3.427 1.619 0 2.681-1.346 2.681-3.427zm13.306 0c0 3.165-1.688 5.2-4.234 5.2a3.436 3.436 0 0 1-3.192-1.781h-.048v5.045h-2.082V24.123h2.015v1.694h.038a3.6 3.6 0 0 1 3.23-1.8c2.575-.001 4.273 2.043 4.273 5.199zm-2.141 0c0-2.062-1.061-3.418-2.681-3.418-1.591 0-2.661 1.384-2.661 3.418 0 2.052 1.07 3.427 2.661 3.427 1.62 0 2.681-1.346 2.681-3.427zm9.519 1.2c.154 1.385 1.495 2.295 3.326 2.295 1.755 0 3.018-.91 3.018-2.159 0-1.084-.762-1.734-2.565-2.179l-1.8-.436c-2.555-.62-3.741-1.819-3.741-3.766 0-2.41 2.092-4.066 5.061-4.066 2.941 0 4.956 1.656 5.024 4.066h-2.1c-.126-1.394-1.274-2.236-2.951-2.236s-2.829.852-2.829 2.091c0 .988.733 1.569 2.526 2.014l1.533.378c2.855.678 4.04 1.829 4.04 3.873 0 2.614-2.072 4.251-5.37 4.251-3.085 0-5.169-1.6-5.3-4.125zm13.037-8.704v2.41h1.926v1.656h-1.926v5.615c0 .872.386 1.279 1.234 1.279a6.482 6.482 0 0 0 .685-.048v1.646a5.7 5.7 0 0 1-1.157.1c-2.054 0-2.855-.775-2.855-2.75v-5.842H97.8v-1.655h1.475v-2.411zm3.045 7.504c0-3.2 1.88-5.218 4.811-5.218s4.812 2.014 4.812 5.218-1.861 5.218-4.812 5.218-4.811-2.005-4.811-5.218zm7.5 0c0-2.2-1-3.5-2.69-3.5s-2.69 1.307-2.69 3.5c0 2.207 1 3.495 2.69 3.495s2.69-1.288 2.69-3.495zm3.839-5.093h1.986v1.734h.048a2.421 2.421 0 0 1 2.44-1.84 3.2 3.2 0 0 1 .713.078v1.955a2.9 2.9 0 0 0-.936-.126 2.1 2.1 0 0 0-2.17 2.343v6.041h-2.082zm14.79 7.194c-.28 1.849-2.073 3.118-4.368 3.118-2.951 0-4.782-1.985-4.782-5.17s1.841-5.267 4.695-5.267c2.806 0 4.571 1.936 4.571 5.024v.716h-7.164v.126a2.648 2.648 0 0 0 2.729 2.885 2.294 2.294 0 0 0 2.343-1.433zm-7.039-3.04h5.071a2.445 2.445 0 0 0-2.488-2.585 2.573 2.573 0 0 0-2.583 2.585z" fill="#fff"/></g><path data-name="Shape" d="M50.367 9.823a2.964 2.964 0 0 1 3.146 3.335c0 2.145-1.154 3.377-3.146 3.377h-2.415V9.823zm-1.376 5.763h1.26a2.107 2.107 0 0 0 2.2-2.414 2.113 2.113 0 0 0-2.2-2.4h-1.26zM54.685 14a2.391 2.391 0 1 1 4.758 0 2.391 2.391 0 1 1-4.758 0zm3.734 0c0-1.1-.491-1.74-1.353-1.74s-1.352.642-1.352 1.74.487 1.741 1.352 1.741 1.353-.642 1.353-1.744zm7.349 2.535h-1.032l-1.043-3.731h-.079l-1.038 3.731h-1.023l-1.391-5.066h1.01l.9 3.865h.074l1.041-3.865h.955l1.037 3.865h.079l.9-3.865h1zm2.556-5.066h.963v.8h.074a1.51 1.51 0 0 1 1.506-.9 1.645 1.645 0 0 1 1.746 1.884v3.282h-1v-3.029c0-.814-.352-1.219-1.089-1.219a1.16 1.16 0 0 0-1.2 1.284v2.964h-1zm5.871-1.977h1v7.043h-1zM76.575 14a2.391 2.391 0 1 1 4.759 0 2.392 2.392 0 1 1-4.759 0zm3.734 0c0-1.1-.491-1.74-1.353-1.74s-1.352.642-1.352 1.74.486 1.741 1.351 1.741 1.353-.642 1.353-1.744zm2.072 1.103c0-.912.676-1.438 1.876-1.512l1.366-.08v-.437c0-.535-.352-.837-1.033-.837-.556 0-.941.2-1.051.563h-.964c.1-.87.917-1.428 2.061-1.428 1.265 0 1.978.632 1.978 1.7v3.463h-.958v-.712h-.079a1.7 1.7 0 0 1-1.515.8 1.526 1.526 0 0 1-1.682-1.516zm3.242-.433v-.424l-1.232.079c-.695.047-1.01.284-1.01.731s.394.721.936.721a1.191 1.191 0 0 0 1.306-1.107zm2.301-.67c0-1.6.82-2.615 2.094-2.615a1.661 1.661 0 0 1 1.547.889h.073V9.492h1v7.043h-.954v-.8h-.079a1.749 1.749 0 0 1-1.584.884c-1.283 0-2.097-1.014-2.097-2.619zm1.029 0c0 1.074.5 1.721 1.348 1.721s1.358-.656 1.358-1.717-.521-1.72-1.358-1.72-1.348.651-1.348 1.717zm7.802 0a2.391 2.391 0 1 1 4.758 0 2.391 2.391 0 1 1-4.758 0zm3.734 0c0-1.1-.491-1.74-1.353-1.74s-1.352.642-1.352 1.74.487 1.741 1.352 1.741 1.353-.638 1.353-1.741zm2.36-2.531h.958v.8h.074a1.51 1.51 0 0 1 1.506-.9 1.645 1.645 0 0 1 1.746 1.884v3.282h-1v-3.029c0-.814-.352-1.219-1.089-1.219a1.16 1.16 0 0 0-1.2 1.284v2.964h-1zm9.914-1.259v1.283h1.09v.842h-1.09v2.6c0 .531.218.763.713.763a3.31 3.31 0 0 0 .38-.023v.835a3.254 3.254 0 0 1-.542.051c-1.107 0-1.548-.391-1.548-1.368v-2.858h-.8v-.842h.8V10.21zm2.45-.718h.987v2.792h.079a1.552 1.552 0 0 1 1.538-.907 1.666 1.666 0 0 1 1.738 1.883v3.275h-1v-3.024c0-.809-.375-1.219-1.079-1.219a1.181 1.181 0 0 0-1.27 1.284v2.959h-1zm10.147 5.675a2.048 2.048 0 0 1-2.186 1.466 2.3 2.3 0 0 1-2.331-2.615 2.333 2.333 0 0 1 2.326-2.647c1.4 0 2.251.963 2.251 2.554v.349h-3.563v.056a1.337 1.337 0 0 0 1.344 1.451 1.208 1.208 0 0 0 1.2-.614zm-3.5-1.633h2.549a1.22 1.22 0 0 0-1.242-1.312 1.293 1.293 0 0 0-1.306 1.312z" fill="#fff"/></svg>