<svg xmlns="http://www.w3.org/2000/svg" viewBox="0 0 226 67"><defs><style>.cls-1{fill:#fff}.cls-3{fill:#fffffe}</style><mask id="mask" x="38.32" y="26.34" width="17" height="14.32" maskUnits="userSpaceOnUse"><g id="mask-2"><path id="path-1" class="cls-1" d="M45.22 40.66l-6.9-6.92v-.48l6.91-6.92 8.34 4.74c2.33 1.33 2.33 3.51 0 4.84l-8.19 4.65-.16.09"/></g></mask><linearGradient id="linear-gradient" x1="-172.37" y1="427.36" x2="-174.75" y2="427.36" gradientTransform="matrix(17 0 0 -14.32 2982.66 6151.65)" gradientUnits="userSpaceOnUse"><stop offset="0" stop-color="#ec942d"/><stop offset="1" stop-color="#fbde1e"/></linearGradient><mask id="mask-2-2" x="17.47" y="33.5" width="27.91" height="21.52" maskUnits="userSpaceOnUse"><g id="mask-5"><path id="path-4" class="cls-1" d="M45.38 40.57l-7.06-7.07-20.85 20.86c.77.81 2 .91 3.48.1l24.43-13.89"/></g></mask><linearGradient id="linear-gradient-2" x1="-176.55" y1="436.73" x2="-177.91" y2="434.96" gradientTransform="matrix(27.91 0 0 -21.52 4969.25 9437.27)" gradientUnits="userSpaceOnUse"><stop offset="0" stop-color="#dd4245"/><stop offset="1" stop-color="#b72162"/></linearGradient><mask id="mask-3" x="17.47" y="11.98" width="27.91" height="21.52" maskUnits="userSpaceOnUse"><g id="mask-8"><path id="path-7" class="cls-1" d="M45.38 26.43L21 12.54c-1.44-.81-2.71-.71-3.48.1l20.8 20.86 7.06-7.07"/></g></mask><linearGradient id="linear-gradient-3" x1="-177.92" y1="437.87" x2="-176.8" y2="436.42" gradientTransform="matrix(27.91 0 0 -21.52 4969.25 9415.75)" gradientUnits="userSpaceOnUse"><stop offset="0" stop-color="#6cb966"/><stop offset="1" stop-color="#299567"/></linearGradient></defs><g id="Layer_2" data-name="Layer 2"><g id="Layer_1-2" data-name="Layer 1"><g id="Page-1"><g id="Medium-Product-Hunt"><g id="Group"><path id="Fill-3" d="M217.63 67H8.37A8.4 8.4 0 0 1 0 58.63V8.38A8.4 8.4 0 0 1 8.37 0h209.26A8.4 8.4 0 0 1 226 8.38v50.25a8.4 8.4 0 0 1-8.37 8.37" fill="#32325d"/><path id="Fill-5" class="cls-3" d="M79.38 17.16a4.5 4.5 0 0 1-1.25 3.35A4.86 4.86 0 0 1 74.44 22a5.17 5.17 0 0 1-5.21-5.25 5.17 5.17 0 0 1 5.21-5.25 5.25 5.25 0 0 1 2.07.42A4.22 4.22 0 0 1 78.08 13l-.89.89a3.37 3.37 0 0 0-2.75-1.19 3.88 3.88 0 0 0-3.9 4 3.88 3.88 0 0 0 3.9 4 3.8 3.8 0 0 0 2.81-1.12 3.08 3.08 0 0 0 .84-2h-3.65V16.4h4.87a4 4 0 0 1 .07.76"/><path id="Fill-6" class="cls-3" d="M79.38 17.16h-.16A4.42 4.42 0 0 1 78 20.39a4.71 4.71 0 0 1-3.57 1.43 4.84 4.84 0 0 1-3.57-1.46 4.9 4.9 0 0 1-1.48-3.62 4.9 4.9 0 0 1 1.48-3.62 5.09 5.09 0 0 1 5.57-1.05A4 4 0 0 1 78 13.15l.13-.11-.13-.11-.88.88.11.12.13-.11a3.57 3.57 0 0 0-2.88-1.25 4 4 0 0 0-4.06 4.18 4.12 4.12 0 0 0 7 3 3.34 3.34 0 0 0 .89-2.14v-.18h-3.7v-.87h4.7v-.16h-.16a4.62 4.62 0 0 1 .07.73h.33a4.29 4.29 0 0 0-.07-.79v-.14h-5.2v1.54h3.81v-.16h-.17a3 3 0 0 1-.79 1.93 3.82 3.82 0 0 1-5.31 0 3.68 3.68 0 0 1-1.11-2.78 3.72 3.72 0 0 1 3.73-3.85A3.25 3.25 0 0 1 77.07 14l.11.14 1-1 .1-.11-.09-.11a4.36 4.36 0 0 0-1.64-1.17 5.31 5.31 0 0 0-2.13-.44 5.34 5.34 0 0 0-5.38 5.42 5.34 5.34 0 0 0 5.38 5.42 5.09 5.09 0 0 0 3.82-1.54l-.13-.12.12.12a4.71 4.71 0 0 0 1.3-3.47h-.17"/><path id="Fill-7" class="cls-3" d="M87.1 12.96h-4.58v3.19h4.13v1.2h-4.13v3.19h4.58v1.23h-5.87V11.72h5.87v1.24"/><path id="Fill-8" class="cls-3" d="M87.1 12.96v-.17h-4.74v3.53h4.12v.86h-4.12v3.53h4.57v.9H81.4v-9.72h5.53v1.07h.17v-.17.17h.17v-1.4h-6.2v10.38h6.2v-1.57h-4.58v-2.85h4.13v-1.54h-4.13v-2.85h4.58v-.17h-.17"/><path id="Fill-9" class="cls-3" d="M92.54 21.77h-1.29v-8.81h-2.81v-1.24h6.91v1.24h-2.81v8.81"/><path id="Fill-10" class="cls-3" d="M92.54 21.77v-.16h-1.12v-8.82h-2.81v-.9h6.57v.9h-2.81v8.98h.17v-.16.16h.17v-8.64h2.8v-1.57h-7.23v1.57h2.8v8.81h1.63v-.17h-.17"/><path id="Fill-11" class="cls-3" d="M100.34 21.77h1.29V11.72h-1.29v10.05z"/><path id="Fill-12" class="cls-3" d="M100.34 21.77h.17v-9.88h.95v9.72h-1.12v.16h.17-.17v.17h1.46V11.56h-1.63v10.38h.17v-.17"/><path id="Fill-13" class="cls-3" d="M107.36 21.77h-1.3v-8.81h-2.8v-1.24h6.9v1.24h-2.8v8.81"/><path id="Fill-14" class="cls-3" d="M107.36 21.77v-.16h-1.13v-8.82h-2.8v-.9h6.56v.9h-2.8v8.98h.17v-.16.16h.16v-8.64h2.81v-1.57h-7.24v1.57h2.81v8.81h1.62v-.17h-.16"/><path id="Fill-15" class="cls-3" d="M116.82 19.63a3.85 3.85 0 0 0 5.45 0 3.9 3.9 0 0 0 1.12-2.88 3.9 3.9 0 0 0-1.12-2.88 3.85 3.85 0 0 0-5.45 0 3.9 3.9 0 0 0-1.12 2.88 3.9 3.9 0 0 0 1.12 2.88zm6.41.85a5.23 5.23 0 0 1-7.37 0 5.15 5.15 0 0 1-1.48-3.73 5.15 5.15 0 0 1 1.48-3.75 5.2 5.2 0 0 1 7.36 0 5.15 5.15 0 0 1 1.49 3.72 5.19 5.19 0 0 1-1.48 3.76z"/><path id="Fill-16" class="cls-3" d="M116.82 19.63l-.12.12a4 4 0 0 0 5.69 0 4.09 4.09 0 0 0 1.17-3 4.09 4.09 0 0 0-1.17-3 4 4 0 0 0-5.69 0 4.09 4.09 0 0 0-1.17 3 4.09 4.09 0 0 0 1.17 3l.24-.23a3.74 3.74 0 0 1-1.07-2.77 3.74 3.74 0 0 1 1.07-2.75 3.69 3.69 0 0 1 5.22 0 3.75 3.75 0 0 1 1.07 2.77 3.75 3.75 0 0 1-1.07 2.77 3.51 3.51 0 0 1-2.61 1.08 3.58 3.58 0 0 1-2.61-1.08zm6.41.85l-.12-.12a5.06 5.06 0 0 1-7.13 0 5 5 0 0 1-1.43-3.61 5 5 0 0 1 1.45-3.61 5 5 0 0 1 7.12 0 5 5 0 0 1 1.44 3.6 5 5 0 0 1-1.43 3.61l.24.23a5.28 5.28 0 0 0 1.52-3.84 5.28 5.28 0 0 0-1.53-3.84 5.36 5.36 0 0 0-7.6 0 5.28 5.28 0 0 0-1.52 3.84 5.28 5.28 0 0 0 1.52 3.84 5.37 5.37 0 0 0 7.61 0z"/><path id="Fill-17" class="cls-3" d="M126.52 21.77V11.72h1.57l4.88 7.82h.06l-.06-1.93v-5.89h1.29v10.05h-1.35l-5.1-8.19h-.06l.06 1.94v6.25h-1.29"/><path id="Fill-18" class="cls-3" d="M126.52 21.77h.17v-9.88H128l4.88 7.82h.32l-.06-2.11v-5.71h.95v9.72h-1.08l-5.11-8.2h-.32l.06 2.11v6.09h-1.12v.16h.17-.17v.17h1.46v-6.43l-.06-1.94-.17.01v.16h.06v-.16l-.14.09 5.15 8.27h1.61V11.56h-1.63v6.05l.06 1.94.17-.01v-.16h-.06v.16l.14-.09-4.93-7.89h-1.83v10.38h.17v-.17"/><path id="Fill-19" class="cls-3" d="M179 50.25h3.12V29.31H179zm28.13-13.4l-3.58 9.08h-.1l-3.72-9.08h-3.36L202 49.54l-3.18 7.06H202l8.59-19.75zm-17.71 11c-1 0-2.45-.51-2.45-1.78 0-1.61 1.78-2.23 3.31-2.23a5.48 5.48 0 0 1 2.85.7 3.78 3.78 0 0 1-3.69 3.33zm.38-11.47a5.86 5.86 0 0 0-5.58 3.2l2.78 1.18a3 3 0 0 1 2.85-1.54c1.62 0 3.26 1 3.28 2.7v.21a6.91 6.91 0 0 0-3.25-.8c-3 0-6 1.64-6 4.71 0 2.8 2.45 4.61 5.19 4.61a4.43 4.43 0 0 0 4-2h.1v1.61h3v-8c0-3.79-2.77-5.86-6.35-5.86zm-19.31 3h-4.44v-7.15h4.44a3.59 3.59 0 1 1 0 7.17zm-.08-10.09H163v20.96h3.12v-7.93h4.36a6.51 6.51 0 1 0 0-13zm-40.79 18.58a4.08 4.08 0 0 1-4-4.28 4.13 4.13 0 0 1 4-4.35c2.13 0 3.8 1.84 3.8 4.35a4 4 0 0 1-3.8 4.28zM133.2 38h-.11a4.92 4.92 0 0 0-3.74-1.6 7.13 7.13 0 0 0 0 14.25 4.82 4.82 0 0 0 3.74-1.62h.11v1c0 2.72-1.45 4.18-3.8 4.18a4 4 0 0 1-3.59-2.54l-2.72 1.14a6.78 6.78 0 0 0 6.31 4.21c3.67 0 6.77-2.16 6.77-7.42V36.87h-3zm5.13 12.22h3.13V29.31h-3.13zm7.74-6.91a3.9 3.9 0 0 1 3.72-4.15 2.75 2.75 0 0 1 2.64 1.51zm9.71-2.31a6.63 6.63 0 0 0-6.1-4.54 6.77 6.77 0 0 0-6.68 7.1 7 7 0 0 0 7 7.12 7.09 7.09 0 0 0 6-3.16l-2.43-1.61a4.08 4.08 0 0 1-3.51 2 3.61 3.61 0 0 1-3.45-2.15l9.52-3.94zm-75.85-2.38v3h7.22a6.32 6.32 0 0 1-1.64 3.81 7.41 7.41 0 0 1-5.58 2.21 8 8 0 0 1 0-16.08 7.65 7.65 0 0 1 5.44 2.16l2.14-2.14a10.57 10.57 0 0 0-7.58-3.05 11.07 11.07 0 1 0 0 22.13 9.79 9.79 0 0 0 10.33-10.15 9.68 9.68 0 0 0-.17-1.89zm18.54 9.25a4.33 4.33 0 1 1 4-4.31 4.12 4.12 0 0 1-4 4.31zm0-11.44a7.13 7.13 0 1 0 7.15 7.13 7 7 0 0 0-7.15-7.13zm15.59 11.44a4.33 4.33 0 1 1 4-4.31 4.12 4.12 0 0 1-4 4.31zm0-11.44a7.13 7.13 0 1 0 7.15 7.13 7 7 0 0 0-7.15-7.13z"/><path id="Fill-20" d="M17.47 12.64A3.35 3.35 0 0 0 16.7 15v37a3.35 3.35 0 0 0 .77 2.35l.12.12 20.73-20.73v-.48L17.59 12.52l-.12.12" fill="#60c2e3"/><g mask="url(#mask)" id="Group-23"><path id="Fill-21" d="M45.22 40.66l-6.9-6.92v-.48l6.91-6.92 8.34 4.74c2.33 1.33 2.33 3.51 0 4.84l-8.19 4.65-.16.09" fill="url(#linear-gradient)"/></g><g mask="url(#mask-2-2)" id="Group-26"><path id="Fill-24" d="M45.38 40.57l-7.06-7.07-20.85 20.86c.77.81 2 .91 3.48.1l24.43-13.89" fill="url(#linear-gradient-2)"/></g><g mask="url(#mask-3)" id="Group-29"><path id="Fill-27" d="M45.38 26.43L21 12.54c-1.44-.81-2.71-.71-3.48.1l20.8 20.86 7.06-7.07" fill="url(#linear-gradient-3)"/></g></g></g></g></g></g></svg>