<svg xmlns="http://www.w3.org/2000/svg" width="151" height="46"><defs><linearGradient id="a" x1=".807" y1=".5" x2="-1.573" y2=".5" gradientUnits="objectBoundingBox"><stop offset="0" stop-color="#ec942d"/><stop offset="1" stop-color="#fbde1e"/></linearGradient><linearGradient id="b" x1=".862" y1=".178" x2="-.501" y2="1.948" gradientUnits="objectBoundingBox"><stop offset="0" stop-color="#dd4245"/><stop offset="1" stop-color="#b72162"/></linearGradient><linearGradient id="c" x1="-.507" y1="-.956" x2=".606" y2=".489" gradientUnits="objectBoundingBox"><stop offset="0" stop-color="#6cb966"/><stop offset="1" stop-color="#299567"/></linearGradient></defs><path d="M144.944 45.5H6.056A5.607 5.607 0 0 1 .5 39.875V6.125A5.607 5.607 0 0 1 6.056.5h138.888a5.607 5.607 0 0 1 5.556 5.625v33.75a5.607 5.607 0 0 1-5.556 5.625" fill="none" stroke="#fff" fill-rule="evenodd"/><path d="M53.187 12.024a3.067 3.067 0 0 1-.829 2.253 3.209 3.209 0 0 1-2.449 1 3.333 3.333 0 0 1-2.453-1.014 3.417 3.417 0 0 1-1.01-2.512 3.415 3.415 0 0 1 1.01-2.512 3.333 3.333 0 0 1 2.454-1.015 3.415 3.415 0 0 1 1.369.282 2.744 2.744 0 0 1 1.042.755l-.586.593a2.241 2.241 0 0 0-1.826-.8 2.513 2.513 0 0 0-1.82.749 2.6 2.6 0 0 0-.769 1.946 2.6 2.6 0 0 0 .769 1.946 2.632 2.632 0 0 0 3.682 0 2.139 2.139 0 0 0 .559-1.368h-2.42v-.81h3.231a2.917 2.917 0 0 1 .047.508" fill="#fffffe" fill-rule="evenodd"/><path d="M53.188 12.024h-.111a2.953 2.953 0 0 1-.8 2.174 3.1 3.1 0 0 1-2.369.964 3.22 3.22 0 0 1-2.374-.981 3.3 3.3 0 0 1-.978-2.432 3.3 3.3 0 0 1 .978-2.432 3.22 3.22 0 0 1 2.374-.981 3.291 3.291 0 0 1 1.324.273 2.638 2.638 0 0 1 1 .723l.084-.072-.079-.08-.58.599.079.079.084-.079a2.349 2.349 0 0 0-1.91-.84 2.629 2.629 0 0 0-1.9.781 2.713 2.713 0 0 0-.8 2.027 2.713 2.713 0 0 0 .8 2.027 2.74 2.74 0 0 0 3.839-.006 2.25 2.25 0 0 0 .591-1.437l.01-.123h-2.429v-.586h3.12v-.111l-.11.019a2.827 2.827 0 0 1 .046.489h.222a3.031 3.031 0 0 0-.049-.529l-.017-.092h-3.434v1.035h2.532v-.113l-.111-.009a2.025 2.025 0 0 1-.527 1.3 2.521 2.521 0 0 1-3.527 0 2.487 2.487 0 0 1-.734-1.866 2.487 2.487 0 0 1 .735-1.866 2.4 2.4 0 0 1 1.743-.717 2.124 2.124 0 0 1 1.74.761l.078.093.672-.681.072-.072-.066-.08a2.868 2.868 0 0 0-1.084-.785 3.529 3.529 0 0 0-1.412-.291 3.441 3.441 0 0 0-2.533 1.051 3.529 3.529 0 0 0-1.043 2.592 3.533 3.533 0 0 0 1.043 2.593 3.444 3.444 0 0 0 2.531 1.045 3.327 3.327 0 0 0 2.53-1.034l-.081-.078.079.08a3.188 3.188 0 0 0 .861-2.333h-.111m5.123-2.819h-3.037v2.141h2.738v.81h-2.738v2.141h3.037v.829h-3.893v-6.75h3.892v.829" fill="#fffffe" fill-rule="evenodd"/><path d="M58.309 9.205v-.113h-3.147v2.366h2.737v.585h-2.737v2.362h3.037v.6h-3.67V8.488h3.67v.717h.222v-.942h-4.115v6.975h4.114v-1.055h-3.036v-1.915h2.738v-1.035h-2.738V9.317h3.037v-.112h-.112m3.613 5.92h-.858V9.204h-1.861v-.829h4.581v.829h-1.862v5.921" fill="#fffffe" fill-rule="evenodd"/><path d="M61.921 15.125v-.112h-.747V9.092h-1.86v-.6h4.36v.6h-1.86v6.033h.222V9.317h1.858V8.262h-4.8v1.054h1.862v5.921h1.08v-.112h-.111m5.173 0h.857v-6.75h-.857z" fill="#fffffe" fill-rule="evenodd"/><path d="M67.097 15.125h.111V8.488h.633v6.525h-.744v.225h.968V8.262h-1.079v6.975h.111v-.112m4.656 0h-.857V9.204h-1.862v-.829h4.581v.829h-1.862v5.921" fill="#fffffe" fill-rule="evenodd"/><path d="M71.753 15.125v-.112h-.746V9.092h-1.862v-.6h4.359v.6h-1.862v6.033h.222V9.317h1.862V8.262h-4.8v1.054h1.862v5.921h1.079v-.112h-.111m6.279-1.437a2.542 2.542 0 0 0 3.622 0 2.662 2.662 0 0 0 .741-1.937 2.662 2.662 0 0 0-.741-1.937 2.542 2.542 0 0 0-3.622 0 2.665 2.665 0 0 0-.74 1.937 2.665 2.665 0 0 0 .74 1.937zm4.256.566a3.432 3.432 0 0 1-4.888 0 3.475 3.475 0 0 1-.982-2.5 3.475 3.475 0 0 1 .982-2.5 3.421 3.421 0 0 1 4.883 0 3.474 3.474 0 0 1 .987 2.5 3.479 3.479 0 0 1-.985 2.499z" fill="#fffffe" fill-rule="evenodd"/><path d="M78.032 13.688l-.079.079a2.648 2.648 0 0 0 3.78 0 2.769 2.769 0 0 0 .773-2.016 2.771 2.771 0 0 0-.773-2.016 2.651 2.651 0 0 0-3.78 0 2.779 2.779 0 0 0-.772 2.016 2.777 2.777 0 0 0 .772 2.016l.159-.158a2.546 2.546 0 0 1-.709-1.859 2.546 2.546 0 0 1 .709-1.858 2.433 2.433 0 0 1 3.464 0 2.548 2.548 0 0 1 .709 1.858 2.548 2.548 0 0 1-.709 1.859 2.43 2.43 0 0 1-3.464 0zm4.256.566l-.079-.079a3.321 3.321 0 0 1-4.729 0 3.361 3.361 0 0 1-.951-2.424 3.361 3.361 0 0 1 .951-2.424 3.311 3.311 0 0 1 4.724 0 3.361 3.361 0 0 1 .954 2.42 3.364 3.364 0 0 1-.95 2.424l.159.156a3.589 3.589 0 0 0 1.013-2.581 3.588 3.588 0 0 0-1.018-2.576 3.53 3.53 0 0 0-5.043 0 3.591 3.591 0 0 0-1.013 2.581 3.589 3.589 0 0 0 1.013 2.581 3.541 3.541 0 0 0 5.048 0zm2.184.871v-6.75h1.043l3.24 5.25h.037l-.037-1.3v-3.95h.857v6.75h-.894l-3.389-5.506h-.038l.038 1.3v4.2h-.857" fill="#fffffe" fill-rule="evenodd"/><path d="M84.472 15.125h.111V8.488h.87l3.24 5.252h.213l-.04-1.415V8.488h.634v6.525h-.721L85.39 9.505h-.212l.04 1.415v4.09h-.746v.225h.968v-4.316l-.038-1.3h-.111v.112h.038v-.112l-.094.06 3.422 5.559h1.067V8.262h-1.079v4.065l.037 1.3h.111v-.111h-.037v.111l.094-.058-3.273-5.3h-1.216v6.975h.111v-.119m34.846 19.125h2.077V20.186h-2.073zm18.674-9l-2.377 6.1h-.071l-2.467-6.1h-2.232l3.7 8.522-2.109 4.741h2.159l5.7-13.263zm-11.758 7.4c-.68 0-1.627-.343-1.627-1.194 0-1.086 1.18-1.5 2.2-1.5a3.66 3.66 0 0 1 1.894.47 2.524 2.524 0 0 1-2.466 2.226zm.25-7.707a3.884 3.884 0 0 0-3.7 2.153l1.84.777a1.96 1.96 0 0 1 1.894-1.032 2 2 0 0 1 2.18 1.81v.144a4.542 4.542 0 0 0-2.162-.542c-1.983 0-4 1.1-4 3.166a3.225 3.225 0 0 0 3.449 3.095 2.917 2.917 0 0 0 2.646-1.376h.071v1.086h2v-5.389c-.001-2.497-1.841-3.89-4.217-3.89zm-12.813 2.021h-2.949v-4.82h2.949a2.41 2.41 0 1 1 0 4.821zm-.053-6.778h-4.968V34.25h2.072v-5.326h2.9a4.372 4.372 0 1 0 0-8.736zm-27.09 12.468a2.913 2.913 0 0 1 0-5.8 2.684 2.684 0 0 1 2.523 2.918 2.66 2.66 0 0 1-2.523 2.883zm2.38-6.615h-.071a3.257 3.257 0 0 0-2.488-1.069 4.792 4.792 0 0 0 0 9.569 3.2 3.2 0 0 0 2.488-1.088h.071v.688c0 1.832-.966 2.81-2.523 2.81a2.619 2.619 0 0 1-2.381-1.7l-1.808.762a4.506 4.506 0 0 0 4.189 2.827c2.434 0 4.493-1.45 4.493-4.984V25.26h-1.97zm3.4 8.21h2.077V20.185h-2.077zm5.137-4.639a2.611 2.611 0 0 1 2.47-2.791 1.825 1.825 0 0 1 1.754 1.015zm6.444-1.6a4.4 4.4 0 0 0-4.046-3.044 4.521 4.521 0 0 0-4.457 4.785 4.7 4.7 0 0 0 8.628 2.664l-1.611-1.088a2.692 2.692 0 0 1-2.328 1.323 2.4 2.4 0 0 1-2.291-1.449l6.319-2.646zm-50.34-1.571v2.029h4.8a4.268 4.268 0 0 1-1.094 2.556 4.886 4.886 0 0 1-3.706 1.485 5.4 5.4 0 0 1 0-10.8 5.078 5.078 0 0 1 3.616 1.45l1.414-1.435a6.951 6.951 0 0 0-5.03-2.049 7.431 7.431 0 1 0 0 14.862 6.665 6.665 0 0 0 5.119-2.085 6.757 6.757 0 0 0 1.737-4.749 6.637 6.637 0 0 0-.108-1.268zm12.31 6.216a2.91 2.91 0 1 1 2.667-2.9 2.753 2.753 0 0 1-2.667 2.9zm0-7.684a4.785 4.785 0 1 0 4.743 4.785 4.687 4.687 0 0 0-4.743-4.785zm10.348 7.684a2.91 2.91 0 1 1 2.667-2.9 2.753 2.753 0 0 1-2.667 2.9zm0-7.684a4.785 4.785 0 1 0 4.743 4.785 4.687 4.687 0 0 0-4.743-4.785z" fill="#fffffe" fill-rule="evenodd"/><path d="M12.095 8.989a2.267 2.267 0 0 0-.513 1.579v24.86a2.267 2.267 0 0 0 .513 1.579l.082.081 13.755-13.924v-.328L12.177 8.91l-.082.081" fill="#60c2e3" fill-rule="evenodd"/><path d="M6.07 10.833L1.487 6.189v-.328l4.585-4.643L11.608 4.4c1.551.893 1.551 2.353 0 3.246l-5.433 3.126-.106.061" transform="translate(24.444 16.975)" fill-rule="evenodd" fill="url(#a)"/><path d="M19.254 4.748L14.565 0 .728 14.01a1.791 1.791 0 0 0 2.308.069l16.218-9.331" transform="translate(11.366 23)" fill-rule="evenodd" fill="url(#b)"/><path d="M19.254 9.96L3.036.629A1.791 1.791 0 0 0 .728.7l13.837 14.01 4.689-4.75" transform="translate(11.366 8.292)" fill-rule="evenodd" fill="url(#c)"/></svg>