<svg version="1.1" id="Ñëîé_1" xmlns="http://www.w3.org/2000/svg" x="0" y="0" viewBox="0 0 1600 338.9" xml:space="preserve"><style/><path d="M1599.9 245.1c-51.9 13.2-100.7 34-147.9 59-21 11.1-42.1 22.1-65.4 27.8-32.1 7.9-63.8 6.6-95.1-3.8-18.5-6.2-35.3-15.8-51.8-26.1-15-9.4-30.1-18.7-45.3-27.7-22.3-13.2-46.7-19.8-72.3-22.1-21.6-2-43.2-2.8-64.9-1-20.3 1.7-40.5 4.4-60.7 7.1-39.2 5.2-78.3 11.1-117.8 12-24.7.6-49.2-1-73.1-7.8-29-8.2-50.6-26.5-68.1-50.5-12.2-16.7-23.3-34.3-36.1-50.5-20.4-25.7-45.6-44.8-75.9-57.3-28.2-11.6-57.5-17-87.8-18.5-32.7-1.6-65.2 1.2-97.8 3.2-23 1.5-46 3-69.1 4.4-24.7 1.6-49.5 2.1-74.2 2.6-27.3.6-53.1-5.8-78.3-15.4-36.7-13.9-72-31.3-108.4-45.9C74.6 20.4 38.7 8.7 1.8.1 1.2-.1.6 0 .1 0c0 144 0 191-.1 335 0 3 .4 4 3.8 4 530.8-.1 1061.6-.1 1592.4 0 3.3 0 3.8-.8 3.8-3.9-.1-62.4-.1-27.7-.1-90z" fill="#fff"/></svg>