<svg xmlns="http://www.w3.org/2000/svg" viewBox="0 0 198 400"><defs><style>.cls-2{fill:#1ae5be}</style></defs><g id="Layer_2" data-name="Layer 2"><g id="Layer_1-2" data-name="Layer 1"><path d="M50.18 334.4V136.73h26.58V40h84.48V10H36.76v96.73H10.18V304.4a85.63 85.63 0 0 0 56.51 80.53 85.21 85.21 0 0 1-16.51-50.53z" fill="#d4e1f4"/><path class="cls-2" d="M161.24 116.73H36.76a10 10 0 0 1-10-10V10a10 10 0 0 1 10-10h124.48a10 10 0 0 1 10 10v96.73a10 10 0 0 1-10 10zm-114.48-20h104.48V20H46.76z"/><path class="cls-2" d="M76.68 81a10 10 0 0 1-10-10V45.14a10 10 0 0 1 20 0V71a10 10 0 0 1-10 10zm44.64 0a10 10 0 0 1-10-10V45.14a10 10 0 1 1 20 0V71a10 10 0 0 1-10 10z"/><path d="M187.82 97H10.18A9.92 9.92 0 0 0 0 106.66V304.4C0 357.11 43.06 400 95.78 400h6.44c52.72 0 95.78-42.89 95.78-95.6V106.73A9.91 9.91 0 0 0 187.89 97zM178 304.4c0 41.69-34.09 75.6-75.78 75.6h-6.44C54.09 380 20 346.09 20 304.4V117h158z" fill="#6a52fd"/></g></g></svg>