<svg xmlns="http://www.w3.org/2000/svg" viewBox="0 0 420.01 296.27"><defs><style>.cls-1{fill:#d4e1f4}</style></defs><g id="Layer_2" data-name="Layer 2"><g id="Layer_1-2" data-name="Layer 1"><path class="cls-1" d="M377.66 207.51L371.55 191a79.51 79.51 0 0 0-98.86-38.7A79.45 79.45 0 0 1 401.55 171l6.1 16.48a79.51 79.51 0 0 1-49.23 93.64 79.49 79.49 0 0 0 19.24-73.64zm-335.28 0L48.49 191a79.5 79.5 0 0 1 98.85-38.7A79.43 79.43 0 0 0 18.5 171l-6.12 16.48a79.52 79.52 0 0 0 49.24 93.64 79.49 79.49 0 0 1-19.24-73.64z"/><path class="cls-1" d="M42.38 207.51L48.49 191a79.5 79.5 0 0 1 98.85-38.7A79.43 79.43 0 0 0 18.5 171l-6.12 16.48a79.52 79.52 0 0 0 49.24 93.64 79.49 79.49 0 0 1-19.24-73.64zm208.87-33.05l-.14 29.16h.07a78.93 78.93 0 0 1 10.24-36 79 79 0 0 0-10.17 6.84zM355.36 46.5A53.08 53.08 0 0 0 304.92 10a53.1 53.1 0 0 0-49.42 33.68A53 53 0 0 1 274.89 40a53.09 53.09 0 0 1 50.43 36.49l19.31 52.06A79.54 79.54 0 0 1 401.55 171z"/><path class="cls-1" d="M94.68 76.49A53.09 53.09 0 0 1 145.11 40a52.88 52.88 0 0 1 19.42 3.69A53.09 53.09 0 0 0 115.16 10a53.08 53.08 0 0 0-50.48 36.5L18.5 171a79.51 79.51 0 0 1 56.87-42.48zm63.93 91.12a79 79 0 0 1 10.31 38.82l-.15-32a80 80 0 0 0-10.16-6.85z"/><path d="M210.07 265.67a36.7 36.7 0 0 1-18.61-5.07l-31.7-18.69a10 10 0 0 1 10.16-17.23l31.7 18.69a16.68 16.68 0 0 0 16.86 0l32-18.74a10 10 0 0 1 10.11 17.26l-32 18.74a36.73 36.73 0 0 1-18.51 5zm-120.59-7.24a51.69 51.69 0 1 1 51.68-51.69 51.69 51.69 0 0 1-51.68 51.69zm0-83.38a31.69 31.69 0 1 0 31.69 31.69 31.69 31.69 0 0 0-31.69-31.69zm239.9 83.38a51.69 51.69 0 1 1 51.69-51.69 51.69 51.69 0 0 1-51.69 51.69zm0-83.38a31.69 31.69 0 1 0 31.69 31.69 31.69 31.69 0 0 0-31.69-31.69z" fill="#1ae5be"/><path d="M417.34 185.05v-.07a88.74 88.74 0 0 0-6.57-17.88L364.8 43.18a63.13 63.13 0 0 0-123 19.8l-.1 18.12h-63.36l-.09-18.1a63.13 63.13 0 0 0-123-19.75L9.29 167.12A88.08 88.08 0 0 0 2.71 185a.14.14 0 0 1 0 .06A89.45 89.45 0 1 0 178.9 207.8v-1.81l-.11-24.89h62.42l-.1 22.46v3.19a89.44 89.44 0 1 0 176.25-21.65zM304.92 20a43 43 0 0 1 40.94 29.62l.14.38 29.41 79.29a89.33 89.33 0 0 0-114 20.84l.41-87.19A43.2 43.2 0 0 1 304.92 20zM74.05 50c0-.12.09-.23.13-.35a43.12 43.12 0 0 1 84.07 13.29l.41 87.25a89.52 89.52 0 0 0-114-20.9zm15.43 226.19A69.46 69.46 0 0 1 22 190.41l5.67-15.32a69.23 69.23 0 0 1 61.86-37.79c38.14 0 69.49 31 69.49 69.17v.41a68.68 68.68 0 0 1-4 22.94 69.62 69.62 0 0 1-65.56 46.37zm89.23-115.09l-.28-60h63.18l-.29 60zm151.85 115.09a69.4 69.4 0 0 1-69.45-69.34v-.11c0-1 0-1.83.06-2.64v-.1a69.45 69.45 0 0 1 131.22-28.91l5.68 15.32a69.49 69.49 0 0 1-67.51 85.78z" fill="#6a52fd"/></g></g></svg>