<svg xmlns="http://www.w3.org/2000/svg" viewBox="0 0 399 399"><g data-name="Layer 2"><g data-name="Layer 1"><path d="M19.72 341l112.86-112.84.1.1 28.71-79.47a50 50 0 0 1 11.66-18.37l14.35-14.34a16.66 16.66 0 0 1 23.57 0l104.84 104.84 9.37-9.32a16.67 16.67 0 0 0 .06-23.57L211 73.75a16.67 16.67 0 0 0-23.56 0L173.05 88.1a49.89 49.89 0 0 0-11.66 18.37L132.68 186l-.1-.11L19.72 298.7a33.34 33.34 0 0 0-2.19 44.73c.69-.83 1.41-1.63 2.19-2.41z" fill="#d4e1f4"/><path d="M76.73 399a43.23 43.23 0 0 1-30.63-12.66l-33.44-33.45a43.37 43.37 0 0 1 0-61.25l112.86-112.86a10 10 0 0 1 14.12 14.11L26.77 305.75a23.38 23.38 0 0 0 0 33l33.45 33.45a23.38 23.38 0 0 0 33 0L206.1 259.36a10 10 0 0 1 14.12 14.11L107.35 386.34A43.17 43.17 0 0 1 76.73 399z" fill="#1ae5be"/><path d="M218 66.7a26.66 26.66 0 0 0-37.67 0L166 81.05a60.47 60.47 0 0 0-14 22l-28.8 79.75a10 10 0 0 0 2.35 10.47l80.58 80.12a9.94 9.94 0 0 0 10.44 2.3l79.51-28.93A60.41 60.41 0 0 0 317.86 233l14.36-14.28a26.63 26.63 0 0 0 .1-37.67l-.05-.05zm100.15 137.82l-14.36 14.28a40.18 40.18 0 0 1-14.54 9.2l-73.55 26.81-71.58-71.18 26.66-73.77a39.93 39.93 0 0 1 9.34-14.7l14.34-14.35a6.69 6.69 0 0 1 9.45 0l114.25 114.24a6.69 6.69 0 0 1 0 9.46zm-181.5 43.72l-24.25 24.25a10 10 0 0 0 14.11 14.11l24.25-24.26a10 10 0 0 0-14-14.16zm167.18-143.1a9.94 9.94 0 0 0 7.06-2.92l34.28-34.28a10 10 0 0 0-14.11-14.11l-34.28 34.28a10 10 0 0 0 7.05 17zm82.22 22.78l-34.29 10.72a10 10 0 0 0 6 19L392 147a10 10 0 0 0-5.95-19zM247.87 53.78a10 10 0 0 0 12.49-6.53L271.08 13A10 10 0 0 0 252 7l-10.68 34.29a10 10 0 0 0 6.55 12.49z" fill="#6a52fd"/></g></g></svg>