<svg xmlns="http://www.w3.org/2000/svg" viewBox="0 0 399.62 424"><g data-name="Layer 2"><g data-name="Layer 1"><path d="M30 311.91v-44.66a33.48 33.48 0 0 1 33.47-33.47h19.05v-20H43.46A33.48 33.48 0 0 0 10 247.27v44.65a33.56 33.56 0 0 0 22 31.48 34.13 34.13 0 0 1-2-11.49zm326.16-98.21h-39.05v20h16.08a33.47 33.47 0 0 1 33.47 33.47v44.76a34.4 34.4 0 0 1-2.4 12.48 33.42 33.42 0 0 0 25.37-32.47v-44.67a33.48 33.48 0 0 0-33.47-33.57zM262.86 404H213.7a25 25 0 0 1-20-40 25 25 0 0 0 0 50h49.15a24.91 24.91 0 0 0 20-10z" fill="#d4e1f4"/><path d="M339.38 317.1a10 10 0 0 0-10 10v21.58A30.43 30.43 0 0 1 299 379h-19.56a13.51 13.51 0 0 0-2.9.4 35 35 0 0 0-33.67-25.38h-49.15a35 35 0 0 0 0 69.94h49.15a35.11 35.11 0 0 0 33.67-25.37 9.19 9.19 0 0 0 2.9.39H299a50.39 50.39 0 0 0 50.35-50.35v-21.54a10 10 0 0 0-10-10zM242.87 404h-49.15a15 15 0 1 1 0-30h49.15a15 15 0 1 1 0 30zM199.81 0C117.39 0 50.25 67.14 50.25 149.56v64.24a10 10 0 1 0 20 0v-64.24C70.23 78.13 128.38 20 199.81 20s129.58 58.13 129.58 129.56v64.24a10 10 0 0 0 20 0v-64.24C349.37 67 282.23 0 199.81 0z" fill="#6a52fd"/><path d="M82.52 203.71H43.46A43.49 43.49 0 0 0 0 247.16v44.76a43.49 43.49 0 0 0 43.46 43.46h39.06a10 10 0 0 0 10-10V213.7a10 10 0 0 0-10-10zm-10 111.69H43.46A23.52 23.52 0 0 1 20 291.92v-44.65a23.52 23.52 0 0 1 23.48-23.48h29.06zm283.64-111.69h-39.05a10 10 0 0 0-10 10v111.68a10 10 0 0 0 10 10h39.05a43.48 43.48 0 0 0 43.46-43.46v-44.66a43.51 43.51 0 0 0-43.46-43.56zm23.48 88.21a23.5 23.5 0 0 1-23.48 23.48h-29.07v-91.71h29.07a23.5 23.5 0 0 1 23.48 23.47z" fill="#1ae5be"/></g></g></svg>