<svg xmlns="http://www.w3.org/2000/svg" viewBox="0 0 423 449"><defs><style>.cls-1{fill:#d4e1f4}.cls-2{fill:#40f4d2}.cls-3{fill:#14e3ba}.cls-4{fill:#6a52fd}</style></defs><g id="Layer_2" data-name="Layer 2"><g id="Layer_1-2" data-name="Layer 1"><path class="cls-1" d="M264 231H124v-90H94v120h210v-30z"/><path class="cls-1" d="M79 410v-41H49v-70l45-50V19a40.13 40.13 0 0 1 1.26-10H94a40 40 0 0 0-40 40v230L9 329v70h30v41h320v-30z"/><path class="cls-2" d="M389 209.5a9 9 0 0 1-9-9v-85a9 9 0 0 1 18 0v85a9 9 0 0 1-9 9z"/><path class="cls-3" d="M403.5 124.5h-29a9 9 0 0 1 0-18h29a9 9 0 0 1 0 18z"/><path class="cls-2" d="M164 270H94a9 9 0 0 1-9-9V141a9 9 0 0 1 9-9h70a9 9 0 0 1 9 9v120a9 9 0 0 1-9 9zm-61-18h52V150h-52zm201 18h-70a9 9 0 0 1-9-9V141a9 9 0 0 1 9-9h70a9 9 0 0 1 9 9v120a9 9 0 0 1-9 9zm-61-18h52V150h-52z"/><path class="cls-4" d="M284 42H114a29 29 0 0 0-29 29v30a9 9 0 0 0 9 9h210a9 9 0 0 0 9-9V71a29 29 0 0 0-29-29zm11 50H103V71a11 11 0 0 1 11-11h170a11 11 0 0 1 11 11z"/><path class="cls-4" d="M414 194.5h-61V49a49.05 49.05 0 0 0-49-49H94a49.05 49.05 0 0 0-49 49v226.55L2.31 323A9 9 0 0 0 0 329v70a9 9 0 0 0 9 9h21v32a9 9 0 0 0 9 9h320a9 9 0 0 0 9-9v-32h21a9 9 0 0 0 9-9v-70a9 9 0 0 0-2.31-6L353 275.55V242.5h61a9 9 0 0 0 9-9v-30a9 9 0 0 0-9-9zM350 431H48v-23h302zm30-98.55V390H18v-57.55L60.69 285a9 9 0 0 0 2.31-6V49a31 31 0 0 1 31-31h210a31 31 0 0 1 31 31v230a9 9 0 0 0 2.31 6zm25-107.95h-52v-12h52z"/><path class="cls-3" d="M234 270h-70a9 9 0 0 1-9-9V141a9 9 0 0 1 9-9h70a9 9 0 0 1 9 9v120a9 9 0 0 1-9 9zm-61-18h52V150h-52z"/></g></g></svg>